<svg id="Background" xmlns="http://www.w3.org/2000/svg" xmlns:xlink="http://www.w3.org/1999/xlink" viewBox="0 0 2041.21 1081"><defs><style>.cls-1,.cls-6{fill:none;}.cls-2{fill:#eeebff;}.cls-3{fill:#00a99d;}.cls-4{fill:#efa53a;}.cls-5{fill:url(#radial-gradient);}.cls-6{stroke:#fff;stroke-linecap:round;stroke-linejoin:round;stroke-width:0;}</style><radialGradient id="radial-gradient" cx="930.02" cy="540.01" r="949.51" gradientUnits="userSpaceOnUse"><stop offset="0" stop-color="#ff9b0c"/><stop offset="1" stop-color="#ed6e00"/></radialGradient></defs><title>Background</title><rect class="cls-1" x="42" y="43.07" width="5.5" height="24"/><polygon class="cls-1" points="47.5 29.07 28 29.07 28 58.06 9 58.06 9 43.06 0 43.06 0 67.06 36.21 67.06 36.21 38.06 37 38.06 47.5 38.06 47.5 29.07"/><polygon class="cls-1" points="2032.21 53.06 2041.21 53.06 2041.21 29.07 2004.21 29.07 2004.21 58.06 2003.21 58.06 1985.21 58.06 1984.21 58.06 1984.21 43.06 1976.21 43.06 1976.21 67.06 2013.21 67.06 2013.21 38.06 2032.21 38.06 2032.21 53.06"/><polygon class="cls-1" points="1975 1016.5 1976 1016.5 1976 1031.5 1984 1031.5 1984 1007.5 1968.5 1007.5 1968.5 1016.5 1975 1016.5"/><polygon class="cls-1" points="1990.21 38.06 1990.21 53.06 1998.21 53.06 1998.21 29.07 1968.5 29.07 1968.5 67.06 1970.21 67.06 1970.21 38.06 1971.21 38.06 1989.21 38.06 1990.21 38.06"/><polygon class="cls-2" points="442 1036.5 441 1036.5 423 1036.5 422 1036.5 422 1021.5 414 1021.5 414 1045.5 451 1045.5 451 1016.5 452 1016.5 470 1016.5 471 1016.5 471 1031.5 479 1031.5 479 1007.5 442 1007.5 442 1036.5"/><polygon class="cls-2" points="614 1036.5 613 1036.5 595 1036.5 594 1036.5 594 1021.5 586 1021.5 586 1045.5 623 1045.5 623 1016.5 624 1016.5 642 1016.5 643 1016.5 643 1031.5 651 1031.5 651 1007.5 614 1007.5 614 1036.5"/><polygon class="cls-2" points="571 1036.5 570 1036.5 552 1036.5 551 1036.5 551 1021.5 543 1021.5 543 1045.5 580 1045.5 580 1016.5 581 1016.5 599 1016.5 600 1016.5 600 1031.5 608 1031.5 608 1007.5 571 1007.5 571 1036.5"/><polygon class="cls-2" points="485 1036.5 484 1036.5 466 1036.5 465 1036.5 465 1021.5 457 1021.5 457 1045.5 494 1045.5 494 1016.5 495 1016.5 513 1016.5 514 1016.5 514 1031.5 522 1031.5 522 1007.5 485 1007.5 485 1036.5"/><polygon class="cls-2" points="528 1036.5 527 1036.5 509 1036.5 508 1036.5 508 1021.5 500 1021.5 500 1045.5 537 1045.5 537 1016.5 538 1016.5 556 1016.5 557 1016.5 557 1031.5 565 1031.5 565 1007.5 528 1007.5 528 1036.5"/><polygon class="cls-2" points="657 1036.5 656 1036.5 638 1036.5 637 1036.5 637 1021.5 629 1021.5 629 1045.5 666 1045.5 666 1016.5 667 1016.5 685 1016.5 686 1016.5 686 1031.5 694 1031.5 694 1007.5 657 1007.5 657 1036.5"/><polygon class="cls-2" points="915 1036.5 914 1036.5 896 1036.5 895 1036.5 895 1021.5 887 1021.5 887 1045.5 924 1045.5 924 1016.5 925 1016.5 943 1016.5 944 1016.5 944 1031.5 952 1031.5 952 1007.5 915 1007.5 915 1036.5"/><polygon class="cls-2" points="872 1036.5 871 1036.5 853 1036.5 852 1036.5 852 1021.5 844 1021.5 844 1045.5 881 1045.5 881 1016.5 882 1016.5 900 1016.5 901 1016.5 901 1031.5 909 1031.5 909 1007.5 872 1007.5 872 1036.5"/><polygon class="cls-2" points="958 1036.5 957 1036.5 939 1036.5 938 1036.5 938 1021.5 930 1021.5 930 1045.5 967 1045.5 967 1016.5 968 1016.5 986 1016.5 987 1016.5 987 1031.5 995 1031.5 995 1007.5 958 1007.5 958 1036.5"/><polygon class="cls-2" points="743 1036.5 742 1036.5 724 1036.5 723 1036.5 723 1021.5 715 1021.5 715 1045.5 752 1045.5 752 1016.5 753 1016.5 771 1016.5 772 1016.5 772 1031.5 780 1031.5 780 1007.5 743 1007.5 743 1036.5"/><polygon class="cls-2" points="829 1036.5 828 1036.5 810 1036.5 809 1036.5 809 1021.5 801 1021.5 801 1045.5 838 1045.5 838 1016.5 839 1016.5 857 1016.5 858 1016.5 858 1031.5 866 1031.5 866 1007.5 829 1007.5 829 1036.5"/><polygon class="cls-2" points="700 1036.5 699 1036.5 681 1036.5 680 1036.5 680 1021.5 672 1021.5 672 1045.5 709 1045.5 709 1016.5 710 1016.5 728 1016.5 729 1016.5 729 1031.5 737 1031.5 737 1007.5 700 1007.5 700 1036.5"/><polygon points="76.56 985.94 76.56 985.91 48.5 985.93 48.5 989.93 1954.06 988.94 1954.06 988.96 1967.5 988.95 1967.5 984.95 76.56 985.94"/><polygon class="cls-2" points="1947 1036.5 1946 1036.5 1928 1036.5 1927 1036.5 1927 1021.5 1919 1021.5 1919 1045.5 1956 1045.5 1956 1016.5 1957 1016.5 1967.5 1016.5 1967.5 1007.5 1947 1007.5 1947 1036.5"/><polygon class="cls-2" points="141 1036.5 140 1036.5 122 1036.5 121 1036.5 121 1021.5 113 1021.5 113 1045.5 150 1045.5 150 1016.5 151 1016.5 169 1016.5 170 1016.5 170 1031.5 178 1031.5 178 1007.5 141 1007.5 141 1036.5"/><polygon class="cls-2" points="98 1036.5 97 1036.5 79 1036.5 78 1036.5 78 1021.5 70 1021.5 70 1045.5 107 1045.5 107 1016.5 108 1016.5 126 1016.5 127 1016.5 127 1031.5 135 1031.5 135 1007.5 98 1007.5 98 1036.5"/><rect class="cls-2" x="1962" y="1021.5" width="5.5" height="24"/><polygon class="cls-3" points="76.06 990.94 76.06 990.91 48.5 990.93 48.5 1031.5 50 1031.5 50 1002.5 93 1002.5 97 1002.5 136 1002.5 140 1002.5 179 1002.5 183 1002.5 222 1002.5 226 1002.5 265 1002.5 269 1002.5 308 1002.5 312 1002.5 351 1002.5 355 1002.5 394 1002.5 398 1002.5 437 1002.5 441 1002.5 480 1002.5 484 1002.5 523 1002.5 527 1002.5 566 1002.5 570 1002.5 609 1002.5 613 1002.5 652 1002.5 656 1002.5 695 1002.5 699 1002.5 738 1002.5 742 1002.5 781 1002.5 785 1002.5 824 1002.5 828 1002.5 867 1002.5 871 1002.5 910 1002.5 914 1002.5 953 1002.5 957 1002.5 996 1002.5 1000 1002.5 1039 1002.5 1043 1002.5 1082 1002.5 1086 1002.5 1125 1002.5 1129 1002.5 1168 1002.5 1172 1002.5 1211 1002.5 1215 1002.5 1254 1002.5 1258 1002.5 1297 1002.5 1301 1002.5 1340 1002.5 1344 1002.5 1383 1002.5 1387 1002.5 1426 1002.5 1430 1002.5 1469 1002.5 1473 1002.5 1512 1002.5 1516 1002.5 1555 1002.5 1559 1002.5 1598 1002.5 1602 1002.5 1641 1002.5 1645 1002.5 1684 1002.5 1688 1002.5 1727 1002.5 1731 1002.5 1770 1002.5 1774 1002.5 1813 1002.5 1817 1002.5 1856 1002.5 1860 1002.5 1899 1002.5 1903 1002.5 1942 1002.5 1946 1002.5 1967.5 1002.5 1967.5 989.95 76.06 990.94"/><polygon class="cls-2" points="399 1036.5 398 1036.5 380 1036.5 379 1036.5 379 1021.5 371 1021.5 371 1045.5 408 1045.5 408 1016.5 409 1016.5 427 1016.5 428 1016.5 428 1031.5 436 1031.5 436 1007.5 399 1007.5 399 1036.5"/><polygon class="cls-2" points="1001 1036.5 1000 1036.5 982 1036.5 981 1036.5 981 1021.5 973 1021.5 973 1045.5 1010 1045.5 1010 1016.5 1011 1016.5 1029 1016.5 1030 1016.5 1030 1031.5 1038 1031.5 1038 1007.5 1001 1007.5 1001 1036.5"/><polygon class="cls-2" points="356 1036.5 355 1036.5 337 1036.5 336 1036.5 336 1021.5 328 1021.5 328 1045.5 365 1045.5 365 1016.5 366 1016.5 384 1016.5 385 1016.5 385 1031.5 393 1031.5 393 1007.5 356 1007.5 356 1036.5"/><polygon class="cls-2" points="184 1036.5 183 1036.5 165 1036.5 164 1036.5 164 1021.5 156 1021.5 156 1045.5 193 1045.5 193 1016.5 194 1016.5 212 1016.5 213 1016.5 213 1031.5 221 1031.5 221 1007.5 184 1007.5 184 1036.5"/><polygon class="cls-2" points="313 1036.5 312 1036.5 294 1036.5 293 1036.5 293 1021.5 285 1021.5 285 1045.5 322 1045.5 322 1016.5 323 1016.5 341 1016.5 342 1016.5 342 1031.5 350 1031.5 350 1007.5 313 1007.5 313 1036.5"/><polygon class="cls-2" points="270 1036.5 269 1036.5 251 1036.5 250 1036.5 250 1021.5 242 1021.5 242 1045.5 279 1045.5 279 1016.5 280 1016.5 298 1016.5 299 1016.5 299 1031.5 307 1031.5 307 1007.5 270 1007.5 270 1036.5"/><polygon class="cls-2" points="227 1036.5 226 1036.5 208 1036.5 207 1036.5 207 1021.5 199 1021.5 199 1045.5 236 1045.5 236 1016.5 237 1016.5 255 1016.5 256 1016.5 256 1031.5 264 1031.5 264 1007.5 227 1007.5 227 1036.5"/><polygon class="cls-2" points="1431 1036.5 1430 1036.5 1412 1036.5 1411 1036.5 1411 1021.5 1403 1021.5 1403 1045.5 1440 1045.5 1440 1016.5 1441 1016.5 1459 1016.5 1460 1016.5 1460 1031.5 1468 1031.5 1468 1007.5 1431 1007.5 1431 1036.5"/><polygon class="cls-2" points="1646 1036.5 1645 1036.5 1627 1036.5 1626 1036.5 1626 1021.5 1618 1021.5 1618 1045.5 1655 1045.5 1655 1016.5 1656 1016.5 1674 1016.5 1675 1016.5 1675 1031.5 1683 1031.5 1683 1007.5 1646 1007.5 1646 1036.5"/><polygon class="cls-2" points="1775 1036.5 1774 1036.5 1756 1036.5 1755 1036.5 1755 1021.5 1747 1021.5 1747 1045.5 1784 1045.5 1784 1016.5 1785 1016.5 1803 1016.5 1804 1016.5 1804 1031.5 1812 1031.5 1812 1007.5 1775 1007.5 1775 1036.5"/><polygon class="cls-2" points="1861 1036.5 1860 1036.5 1842 1036.5 1841 1036.5 1841 1021.5 1833 1021.5 1833 1045.5 1870 1045.5 1870 1016.5 1871 1016.5 1889 1016.5 1890 1016.5 1890 1031.5 1898 1031.5 1898 1007.5 1861 1007.5 1861 1036.5"/><polygon class="cls-2" points="1689 1036.5 1688 1036.5 1670 1036.5 1669 1036.5 1669 1021.5 1661 1021.5 1661 1045.5 1698 1045.5 1698 1016.5 1699 1016.5 1717 1016.5 1718 1016.5 1718 1031.5 1726 1031.5 1726 1007.5 1689 1007.5 1689 1036.5"/><polygon class="cls-2" points="1904 1036.5 1903 1036.5 1885 1036.5 1884 1036.5 1884 1021.5 1876 1021.5 1876 1045.5 1913 1045.5 1913 1016.5 1914 1016.5 1932 1016.5 1933 1016.5 1933 1031.5 1941 1031.5 1941 1007.5 1904 1007.5 1904 1036.5"/><polygon class="cls-2" points="1732 1036.5 1731 1036.5 1713 1036.5 1712 1036.5 1712 1021.5 1704 1021.5 1704 1045.5 1741 1045.5 1741 1016.5 1742 1016.5 1760 1016.5 1761 1016.5 1761 1031.5 1769 1031.5 1769 1007.5 1732 1007.5 1732 1036.5"/><polygon class="cls-2" points="1818 1036.5 1817 1036.5 1799 1036.5 1798 1036.5 1798 1021.5 1790 1021.5 1790 1045.5 1827 1045.5 1827 1016.5 1828 1016.5 1846 1016.5 1847 1016.5 1847 1031.5 1855 1031.5 1855 1007.5 1818 1007.5 1818 1036.5"/><polygon class="cls-4" points="76 1074.5 76 1074.48 48.5 1074.49 48.5 1080 1967.5 1080 1967.5 1073.52 76 1074.5"/><polygon class="cls-2" points="64 1016.5 65 1016.5 83 1016.5 84 1016.5 84 1031.5 92 1031.5 92 1007.5 55 1007.5 55 1036.5 48.5 1036.5 48.5 1045.5 64 1045.5 64 1016.5"/><polygon class="cls-5" points="90.21 96.06 90.21 96.04 48.5 96.06 48.5 984.93 1954.56 983.94 1954.56 983.96 1967.5 983.95 1967.5 95.09 90.21 96.06"/><polygon points="76.5 1069.5 76.5 1069.48 48.5 1069.49 48.5 1073.49 1954 1072.5 1954 1072.52 1967.5 1072.52 1967.5 1068.52 76.5 1069.5"/><polygon class="cls-3" points="1961 1050.5 1957 1050.5 1918 1050.5 1914 1050.5 1875 1050.5 1871 1050.5 1832 1050.5 1828 1050.5 1789 1050.5 1785 1050.5 1746 1050.5 1742 1050.5 1703 1050.5 1699 1050.5 1660 1050.5 1656 1050.5 1617 1050.5 1613 1050.5 1574 1050.5 1570 1050.5 1531 1050.5 1527 1050.5 1488 1050.5 1484 1050.5 1445 1050.5 1441 1050.5 1402 1050.5 1398 1050.5 1359 1050.5 1355 1050.5 1316 1050.5 1312 1050.5 1273 1050.5 1269 1050.5 1230 1050.5 1226 1050.5 1187 1050.5 1183 1050.5 1144 1050.5 1140 1050.5 1101 1050.5 1097 1050.5 1058 1050.5 1054 1050.5 1015 1050.5 1011 1050.5 972 1050.5 968 1050.5 929 1050.5 925 1050.5 886 1050.5 882 1050.5 843 1050.5 839 1050.5 800 1050.5 796 1050.5 757 1050.5 753 1050.5 714 1050.5 710 1050.5 671 1050.5 667 1050.5 628 1050.5 624 1050.5 585 1050.5 581 1050.5 542 1050.5 538 1050.5 499 1050.5 495 1050.5 456 1050.5 452 1050.5 413 1050.5 409 1050.5 370 1050.5 366 1050.5 327 1050.5 323 1050.5 284 1050.5 280 1050.5 241 1050.5 237 1050.5 198 1050.5 194 1050.5 155 1050.5 151 1050.5 112 1050.5 108 1050.5 69 1050.5 65 1050.5 48.5 1050.5 48.5 1068.49 1954.5 1067.5 1954.5 1067.52 1967.5 1067.52 1967.5 1050.5 1961 1050.5"/><polygon class="cls-2" points="1474 1036.5 1473 1036.5 1455 1036.5 1454 1036.5 1454 1021.5 1446 1021.5 1446 1045.5 1483 1045.5 1483 1016.5 1484 1016.5 1502 1016.5 1503 1016.5 1503 1031.5 1511 1031.5 1511 1007.5 1474 1007.5 1474 1036.5"/><polygon class="cls-2" points="1216 1036.5 1215 1036.5 1197 1036.5 1196 1036.5 1196 1021.5 1188 1021.5 1188 1045.5 1225 1045.5 1225 1016.5 1226 1016.5 1244 1016.5 1245 1016.5 1245 1031.5 1253 1031.5 1253 1007.5 1216 1007.5 1216 1036.5"/><polygon class="cls-2" points="1173 1036.5 1172 1036.5 1154 1036.5 1153 1036.5 1153 1021.5 1145 1021.5 1145 1045.5 1182 1045.5 1182 1016.5 1183 1016.5 1201 1016.5 1202 1016.5 1202 1031.5 1210 1031.5 1210 1007.5 1173 1007.5 1173 1036.5"/><polygon class="cls-2" points="1603 1036.5 1602 1036.5 1584 1036.5 1583 1036.5 1583 1021.5 1575 1021.5 1575 1045.5 1612 1045.5 1612 1016.5 1613 1016.5 1631 1016.5 1632 1016.5 1632 1031.5 1640 1031.5 1640 1007.5 1603 1007.5 1603 1036.5"/><polygon class="cls-2" points="1302 1036.5 1301 1036.5 1283 1036.5 1282 1036.5 1282 1021.5 1274 1021.5 1274 1045.5 1311 1045.5 1311 1016.5 1312 1016.5 1330 1016.5 1331 1016.5 1331 1031.5 1339 1031.5 1339 1007.5 1302 1007.5 1302 1036.5"/><polygon class="cls-2" points="1130 1036.5 1129 1036.5 1111 1036.5 1110 1036.5 1110 1021.5 1102 1021.5 1102 1045.5 1139 1045.5 1139 1016.5 1140 1016.5 1158 1016.5 1159 1016.5 1159 1031.5 1167 1031.5 1167 1007.5 1130 1007.5 1130 1036.5"/><polygon class="cls-2" points="1087 1036.5 1086 1036.5 1068 1036.5 1067 1036.5 1067 1021.5 1059 1021.5 1059 1045.5 1096 1045.5 1096 1016.5 1097 1016.5 1115 1016.5 1116 1016.5 1116 1031.5 1124 1031.5 1124 1007.5 1087 1007.5 1087 1036.5"/><polygon class="cls-2" points="1259 1036.5 1258 1036.5 1240 1036.5 1239 1036.5 1239 1021.5 1231 1021.5 1231 1045.5 1268 1045.5 1268 1016.5 1269 1016.5 1287 1016.5 1288 1016.5 1288 1031.5 1296 1031.5 1296 1007.5 1259 1007.5 1259 1036.5"/><polygon class="cls-2" points="1560 1036.5 1559 1036.5 1541 1036.5 1540 1036.5 1540 1021.5 1532 1021.5 1532 1045.5 1569 1045.5 1569 1016.5 1570 1016.5 1588 1016.5 1589 1016.5 1589 1031.5 1597 1031.5 1597 1007.5 1560 1007.5 1560 1036.5"/><polygon class="cls-2" points="1345 1036.5 1344 1036.5 1326 1036.5 1325 1036.5 1325 1021.5 1317 1021.5 1317 1045.5 1354 1045.5 1354 1016.5 1355 1016.5 1373 1016.5 1374 1016.5 1374 1031.5 1382 1031.5 1382 1007.5 1345 1007.5 1345 1036.5"/><polygon class="cls-2" points="1517 1036.5 1516 1036.5 1498 1036.5 1497 1036.5 1497 1021.5 1489 1021.5 1489 1045.5 1526 1045.5 1526 1016.5 1527 1016.5 1545 1016.5 1546 1016.5 1546 1031.5 1554 1031.5 1554 1007.5 1517 1007.5 1517 1036.5"/><polygon class="cls-2" points="1388 1036.5 1387 1036.5 1369 1036.5 1368 1036.5 1368 1021.5 1360 1021.5 1360 1045.5 1397 1045.5 1397 1016.5 1398 1016.5 1416 1016.5 1417 1016.5 1417 1031.5 1425 1031.5 1425 1007.5 1388 1007.5 1388 1036.5"/><polygon class="cls-2" points="1044 1036.5 1043 1036.5 1025 1036.5 1024 1036.5 1024 1021.5 1016 1021.5 1016 1045.5 1053 1045.5 1053 1016.5 1054 1016.5 1072 1016.5 1073 1016.5 1073 1031.5 1081 1031.5 1081 1007.5 1044 1007.5 1044 1036.5"/><polygon class="cls-2" points="786 1036.5 785 1036.5 767 1036.5 766 1036.5 766 1021.5 758 1021.5 758 1045.5 795 1045.5 795 1016.5 796 1016.5 814 1016.5 815 1016.5 815 1031.5 823 1031.5 823 1007.5 786 1007.5 786 1036.5"/><polygon class="cls-2" points="1368.21 38.06 1369.21 38.06 1387.21 38.06 1388.21 38.06 1388.21 53.06 1396.21 53.06 1396.21 29.07 1359.21 29.07 1359.21 58.06 1358.21 58.06 1340.21 58.06 1339.21 58.06 1339.21 43.06 1331.21 43.06 1331.21 67.06 1368.21 67.06 1368.21 38.06"/><polygon class="cls-2" points="1540.21 38.06 1541.21 38.06 1559.21 38.06 1560.21 38.06 1560.21 53.06 1568.21 53.06 1568.21 29.07 1531.21 29.07 1531.21 58.06 1530.21 58.06 1512.21 58.06 1511.21 58.06 1511.21 43.06 1503.21 43.06 1503.21 67.06 1540.21 67.06 1540.21 38.06"/><polygon class="cls-2" points="1325.21 38.06 1326.21 38.06 1344.21 38.06 1345.21 38.06 1345.21 53.06 1353.21 53.06 1353.21 29.07 1316.21 29.07 1316.21 58.06 1315.21 58.06 1297.21 58.06 1296.21 58.06 1296.21 43.06 1288.21 43.06 1288.21 67.06 1325.21 67.06 1325.21 38.06"/><polygon class="cls-2" points="1282.21 38.06 1283.21 38.06 1301.21 38.06 1302.21 38.06 1302.21 53.06 1310.21 53.06 1310.21 29.07 1273.21 29.07 1273.21 58.06 1272.21 58.06 1254.21 58.06 1253.21 58.06 1253.21 43.06 1245.21 43.06 1245.21 67.06 1282.21 67.06 1282.21 38.06"/><polygon class="cls-2" points="1454.21 38.06 1455.21 38.06 1473.21 38.06 1474.21 38.06 1474.21 53.06 1482.21 53.06 1482.21 29.07 1445.21 29.07 1445.21 58.06 1444.21 58.06 1426.21 58.06 1425.21 58.06 1425.21 43.06 1417.21 43.06 1417.21 67.06 1454.21 67.06 1454.21 38.06"/><polygon class="cls-2" points="1497.21 38.06 1498.21 38.06 1516.21 38.06 1517.21 38.06 1517.21 53.06 1525.21 53.06 1525.21 29.07 1488.21 29.07 1488.21 58.06 1487.21 58.06 1469.21 58.06 1468.21 58.06 1468.21 43.06 1460.21 43.06 1460.21 67.06 1497.21 67.06 1497.21 38.06"/><polygon class="cls-2" points="1411.21 38.06 1412.21 38.06 1430.21 38.06 1431.21 38.06 1431.21 53.06 1439.21 53.06 1439.21 29.07 1402.21 29.07 1402.21 58.06 1401.21 58.06 1383.21 58.06 1382.21 58.06 1382.21 43.06 1374.21 43.06 1374.21 67.06 1411.21 67.06 1411.21 38.06"/><polygon class="cls-2" points="1067.21 38.06 1068.21 38.06 1086.21 38.06 1087.21 38.06 1087.21 53.06 1095.21 53.06 1095.21 29.07 1058.21 29.07 1058.21 58.06 1057.21 58.06 1039.21 58.06 1038.21 58.06 1038.21 43.06 1030.21 43.06 1030.21 67.06 1067.21 67.06 1067.21 38.06"/><polygon class="cls-2" points="1239.21 38.06 1240.21 38.06 1258.21 38.06 1259.21 38.06 1259.21 53.06 1267.21 53.06 1267.21 29.07 1230.21 29.07 1230.21 58.06 1229.21 58.06 1211.21 58.06 1210.21 58.06 1210.21 43.06 1202.21 43.06 1202.21 67.06 1239.21 67.06 1239.21 38.06"/><polygon class="cls-2" points="1110.21 38.06 1111.21 38.06 1129.21 38.06 1130.21 38.06 1130.21 53.06 1138.21 53.06 1138.21 29.07 1101.21 29.07 1101.21 58.06 1100.21 58.06 1082.21 58.06 1081.21 58.06 1081.21 43.06 1073.21 43.06 1073.21 67.06 1110.21 67.06 1110.21 38.06"/><polygon class="cls-2" points="1024.21 38.06 1025.21 38.06 1043.21 38.06 1044.21 38.06 1044.21 53.06 1052.21 53.06 1052.21 29.07 1015.21 29.07 1015.21 58.06 1014.21 58.06 996.21 58.06 995.21 58.06 995.21 43.06 987.21 43.06 987.21 67.06 1024.21 67.06 1024.21 38.06"/><polygon class="cls-2" points="1153.21 38.06 1154.21 38.06 1172.21 38.06 1173.21 38.06 1173.21 53.06 1181.21 53.06 1181.21 29.07 1144.21 29.07 1144.21 58.06 1143.21 58.06 1125.21 58.06 1124.21 58.06 1124.21 43.06 1116.21 43.06 1116.21 67.06 1153.21 67.06 1153.21 38.06"/><polygon class="cls-2" points="1196.21 38.06 1197.21 38.06 1215.21 38.06 1216.21 38.06 1216.21 53.06 1224.21 53.06 1224.21 29.07 1187.21 29.07 1187.21 58.06 1186.21 58.06 1168.21 58.06 1167.21 58.06 1167.21 43.06 1159.21 43.06 1159.21 67.06 1196.21 67.06 1196.21 38.06"/><polygon class="cls-2" points="1841.21 38.06 1842.21 38.06 1860.21 38.06 1861.21 38.06 1861.21 53.06 1869.21 53.06 1869.21 29.07 1832.21 29.07 1832.21 58.06 1831.21 58.06 1813.21 58.06 1812.21 58.06 1812.21 43.06 1804.21 43.06 1804.21 67.06 1841.21 67.06 1841.21 38.06"/><polygon class="cls-2" points="55.21 38.06 56 38.06 56 53.06 64.21 53.06 64.21 29.07 48.5 29.07 48.5 38.06 55.21 38.06"/><polygon class="cls-2" points="1884.21 38.06 1885.21 38.06 1903.21 38.06 1904.21 38.06 1904.21 53.06 1912.21 53.06 1912.21 29.07 1875.21 29.07 1875.21 58.06 1874.21 58.06 1856.21 58.06 1855.21 58.06 1855.21 43.06 1847.21 43.06 1847.21 67.06 1884.21 67.06 1884.21 38.06"/><polygon class="cls-2" points="78.21 38.06 79.21 38.06 97.21 38.06 98.21 38.06 98.21 53.06 106.21 53.06 106.21 29.07 70 29.07 70 58.06 69.21 58.06 51 58.06 50.21 58.06 50.21 43.06 48.5 43.06 48.5 67.06 78.21 67.06 78.21 38.06"/><polygon points="90.71 91.06 90.71 91.04 48.5 91.06 48.5 95.06 1967.5 94.07 1967.5 90.09 90.71 91.06"/><polygon class="cls-2" points="1961.21 29.07 1961.21 58.06 1960.21 58.06 1942.21 58.06 1941.21 58.06 1941.21 43.06 1933.21 43.06 1933.21 67.06 1967.5 67.06 1967.5 29.07 1961.21 29.07"/><polygon class="cls-2" points="981.21 38.06 982.21 38.06 1000.21 38.06 1001.21 38.06 1001.21 53.06 1009.21 53.06 1009.21 29.07 972.21 29.07 972.21 58.06 971.21 58.06 953.21 58.06 952.21 58.06 952.21 43.06 944.21 43.06 944.21 67.06 981.21 67.06 981.21 38.06"/><polygon class="cls-2" points="1583.21 38.06 1584.21 38.06 1602.21 38.06 1603.21 38.06 1603.21 53.06 1611.21 53.06 1611.21 29.07 1574.21 29.07 1574.21 58.06 1573.21 58.06 1555.21 58.06 1554.21 58.06 1554.21 43.06 1546.21 43.06 1546.21 67.06 1583.21 67.06 1583.21 38.06"/><polygon class="cls-2" points="1669.21 38.06 1670.21 38.06 1688.21 38.06 1689.21 38.06 1689.21 53.06 1697.21 53.06 1697.21 29.07 1660.21 29.07 1660.21 58.06 1659.21 58.06 1641.21 58.06 1640.21 58.06 1640.21 43.06 1632.21 43.06 1632.21 67.06 1669.21 67.06 1669.21 38.06"/><polygon class="cls-2" points="1626.21 38.06 1627.21 38.06 1645.21 38.06 1646.21 38.06 1646.21 53.06 1654.21 53.06 1654.21 29.07 1617.21 29.07 1617.21 58.06 1616.21 58.06 1598.21 58.06 1597.21 58.06 1597.21 43.06 1589.21 43.06 1589.21 67.06 1626.21 67.06 1626.21 38.06"/><polygon class="cls-2" points="1755.21 38.06 1756.21 38.06 1774.21 38.06 1775.21 38.06 1775.21 53.06 1783.21 53.06 1783.21 29.07 1746.21 29.07 1746.21 58.06 1745.21 58.06 1727.21 58.06 1726.21 58.06 1726.21 43.06 1718.21 43.06 1718.21 67.06 1755.21 67.06 1755.21 38.06"/><polygon class="cls-2" points="1798.21 38.06 1799.21 38.06 1817.21 38.06 1818.21 38.06 1818.21 53.06 1826.21 53.06 1826.21 29.07 1789.21 29.07 1789.21 58.06 1788.21 58.06 1770.21 58.06 1769.21 58.06 1769.21 43.06 1761.21 43.06 1761.21 67.06 1798.21 67.06 1798.21 38.06"/><polygon class="cls-2" points="1712.21 38.06 1713.21 38.06 1731.21 38.06 1732.21 38.06 1732.21 53.06 1740.21 53.06 1740.21 29.07 1703.21 29.07 1703.21 58.06 1702.21 58.06 1684.21 58.06 1683.21 58.06 1683.21 43.06 1675.21 43.06 1675.21 67.06 1712.21 67.06 1712.21 38.06"/><polygon class="cls-2" points="852.21 38.06 853.21 38.06 871.21 38.06 872.21 38.06 872.21 53.06 880.21 53.06 880.21 29.07 843.21 29.07 843.21 58.06 842.21 58.06 824.21 58.06 823.21 58.06 823.21 43.06 815.21 43.06 815.21 67.06 852.21 67.06 852.21 38.06"/><polygon class="cls-2" points="293.21 38.06 294.21 38.06 312.21 38.06 313.21 38.06 313.21 53.06 321.21 53.06 321.21 29.07 284.21 29.07 284.21 58.06 283.21 58.06 265.21 58.06 264.21 58.06 264.21 43.06 256.21 43.06 256.21 67.06 293.21 67.06 293.21 38.06"/><polygon class="cls-2" points="250.21 38.06 251.21 38.06 269.21 38.06 270.21 38.06 270.21 53.06 278.21 53.06 278.21 29.07 241.21 29.07 241.21 58.06 240.21 58.06 222.21 58.06 221.21 58.06 221.21 43.06 213.21 43.06 213.21 67.06 250.21 67.06 250.21 38.06"/><polygon class="cls-2" points="207.21 38.06 208.21 38.06 226.21 38.06 227.21 38.06 227.21 53.06 235.21 53.06 235.21 29.07 198.21 29.07 198.21 58.06 197.21 58.06 179.21 58.06 178.21 58.06 178.21 43.06 170.21 43.06 170.21 67.06 207.21 67.06 207.21 38.06"/><polygon class="cls-2" points="422.21 38.06 423.21 38.06 441.21 38.06 442.21 38.06 442.21 53.06 450.21 53.06 450.21 29.07 413.21 29.07 413.21 58.06 412.21 58.06 394.21 58.06 393.21 58.06 393.21 43.06 385.21 43.06 385.21 67.06 422.21 67.06 422.21 38.06"/><polygon class="cls-2" points="379.21 38.06 380.21 38.06 398.21 38.06 399.21 38.06 399.21 53.06 407.21 53.06 407.21 29.07 370.21 29.07 370.21 58.06 369.21 58.06 351.21 58.06 350.21 58.06 350.21 43.06 342.21 43.06 342.21 67.06 379.21 67.06 379.21 38.06"/><polygon class="cls-2" points="164.21 38.06 165.21 38.06 183.21 38.06 184.21 38.06 184.21 53.06 192.21 53.06 192.21 29.07 155.21 29.07 155.21 58.06 154.21 58.06 136.21 58.06 135.21 58.06 135.21 43.06 127.21 43.06 127.21 67.06 164.21 67.06 164.21 38.06"/><polygon class="cls-2" points="336.21 38.06 337.21 38.06 355.21 38.06 356.21 38.06 356.21 53.06 364.21 53.06 364.21 29.07 327.21 29.07 327.21 58.06 326.21 58.06 308.21 58.06 307.21 58.06 307.21 43.06 299.21 43.06 299.21 67.06 336.21 67.06 336.21 38.06"/><polygon class="cls-2" points="121.21 38.06 122.21 38.06 140.21 38.06 141.21 38.06 141.21 53.06 149.21 53.06 149.21 29.07 112.21 29.07 112.21 58.06 111.21 58.06 93.21 58.06 92.21 58.06 92.21 43.06 84.21 43.06 84.21 67.06 121.21 67.06 121.21 38.06"/><polygon points="1967.5 10.5 1967.5 6.53 90.77 7.5 90.77 7.48 48.5 7.5 48.5 11.5 1967.5 10.5"/><polygon class="cls-3" points="1932.21 72.06 1928.21 72.06 1889.21 72.06 1885.21 72.06 1846.21 72.06 1842.21 72.06 1803.21 72.06 1799.21 72.06 1760.21 72.06 1756.21 72.06 1717.21 72.06 1713.21 72.06 1674.21 72.06 1670.21 72.06 1631.21 72.06 1627.21 72.06 1588.21 72.06 1584.21 72.06 1545.21 72.06 1541.21 72.06 1502.21 72.06 1498.21 72.06 1459.21 72.06 1455.21 72.06 1416.21 72.06 1412.21 72.06 1373.21 72.06 1369.21 72.06 1330.21 72.06 1326.21 72.06 1287.21 72.06 1283.21 72.06 1244.21 72.06 1240.21 72.06 1201.21 72.06 1197.21 72.06 1158.21 72.06 1154.21 72.06 1115.21 72.06 1111.21 72.06 1072.21 72.06 1068.21 72.06 1029.21 72.06 1025.21 72.06 986.21 72.06 982.21 72.06 943.21 72.06 939.21 72.06 900.21 72.06 896.21 72.06 857.21 72.06 853.21 72.06 814.21 72.06 810.21 72.06 771.21 72.06 767.21 72.06 728.21 72.06 724.21 72.06 685.21 72.06 681.21 72.06 642.21 72.06 638.21 72.06 599.21 72.06 595.21 72.06 556.21 72.06 552.21 72.06 513.21 72.06 509.21 72.06 470.21 72.06 466.21 72.06 427.21 72.06 423.21 72.06 384.21 72.06 380.21 72.06 341.21 72.06 337.21 72.06 298.21 72.06 294.21 72.06 255.21 72.06 251.21 72.06 212.21 72.06 208.21 72.06 169.21 72.06 165.21 72.06 126.21 72.06 122.21 72.06 83.21 72.06 79.21 72.06 48.5 72.06 48.5 90.06 1967.5 89.07 1967.5 72.06 1932.21 72.06"/><polygon class="cls-2" points="938.21 38.06 939.21 38.06 957.21 38.06 958.21 38.06 958.21 53.06 966.21 53.06 966.21 29.07 929.21 29.07 929.21 58.06 928.21 58.06 910.21 58.06 909.21 58.06 909.21 43.06 901.21 43.06 901.21 67.06 938.21 67.06 938.21 38.06"/><polygon class="cls-3" points="64.21 24.07 70 24.07 107.21 24.07 111.21 24.07 150.21 24.07 154.21 24.07 193.21 24.07 197.21 24.07 236.21 24.07 240.21 24.07 279.21 24.07 283.21 24.07 322.21 24.07 326.21 24.07 365.21 24.07 369.21 24.07 408.21 24.07 412.21 24.07 451.21 24.07 455.21 24.07 494.21 24.07 498.21 24.07 537.21 24.07 541.21 24.07 580.21 24.07 584.21 24.07 623.21 24.07 627.21 24.07 666.21 24.07 670.21 24.07 709.21 24.07 713.21 24.07 752.21 24.07 756.21 24.07 795.21 24.07 799.21 24.07 838.21 24.07 842.21 24.07 881.21 24.07 885.21 24.07 924.21 24.07 928.21 24.07 967.21 24.07 971.21 24.07 1010.21 24.07 1014.21 24.07 1053.21 24.07 1057.21 24.07 1096.21 24.07 1100.21 24.07 1139.21 24.07 1143.21 24.07 1182.21 24.07 1186.21 24.07 1225.21 24.07 1229.21 24.07 1268.21 24.07 1272.21 24.07 1311.21 24.07 1315.21 24.07 1354.21 24.07 1358.21 24.07 1397.21 24.07 1401.21 24.07 1440.21 24.07 1444.21 24.07 1483.21 24.07 1487.21 24.07 1526.21 24.07 1530.21 24.07 1569.21 24.07 1573.21 24.07 1612.21 24.07 1616.21 24.07 1655.21 24.07 1659.21 24.07 1698.21 24.07 1702.21 24.07 1741.21 24.07 1745.21 24.07 1784.21 24.07 1788.21 24.07 1827.21 24.07 1831.21 24.07 1870.21 24.07 1874.21 24.07 1913.21 24.07 1917.21 24.07 1956.21 24.07 1960.21 24.07 1967.5 24.07 1967.5 11.52 90.27 12.5 90.27 12.48 48.5 12.5 48.5 24.07 64.21 24.07"/><polygon class="cls-2" points="1955.21 53.06 1955.21 29.07 1918.21 29.07 1918.21 58.06 1917.21 58.06 1899.21 58.06 1898.21 58.06 1898.21 43.06 1890.21 43.06 1890.21 67.06 1927.21 67.06 1927.21 38.06 1928.21 38.06 1946.21 38.06 1947.21 38.06 1947.21 53.06 1955.21 53.06"/><polygon class="cls-4" points="1967.5 5.5 1967.5 1 48.5 1 48.5 6.5 1967.5 5.5"/><polygon class="cls-2" points="809.21 38.06 810.21 38.06 828.21 38.06 829.21 38.06 829.21 53.06 837.21 53.06 837.21 29.07 800.21 29.07 800.21 58.06 799.21 58.06 781.21 58.06 780.21 58.06 780.21 43.06 772.21 43.06 772.21 67.06 809.21 67.06 809.21 38.06"/><polygon class="cls-2" points="766.21 38.06 767.21 38.06 785.21 38.06 786.21 38.06 786.21 53.06 794.21 53.06 794.21 29.07 757.21 29.07 757.21 58.06 756.21 58.06 738.21 58.06 737.21 58.06 737.21 43.06 729.21 43.06 729.21 67.06 766.21 67.06 766.21 38.06"/><polygon class="cls-2" points="895.21 38.06 896.21 38.06 914.21 38.06 915.21 38.06 915.21 53.06 923.21 53.06 923.21 29.07 886.21 29.07 886.21 58.06 885.21 58.06 867.21 58.06 866.21 58.06 866.21 43.06 858.21 43.06 858.21 67.06 895.21 67.06 895.21 38.06"/><polygon class="cls-2" points="723.21 38.06 724.21 38.06 742.21 38.06 743.21 38.06 743.21 53.06 751.21 53.06 751.21 29.07 714.21 29.07 714.21 58.06 713.21 58.06 695.21 58.06 694.21 58.06 694.21 43.06 686.21 43.06 686.21 67.06 723.21 67.06 723.21 38.06"/><polygon class="cls-2" points="465.21 38.06 466.21 38.06 484.21 38.06 485.21 38.06 485.21 53.06 493.21 53.06 493.21 29.07 456.21 29.07 456.21 58.06 455.21 58.06 437.21 58.06 436.21 58.06 436.21 43.06 428.21 43.06 428.21 67.06 465.21 67.06 465.21 38.06"/><polygon class="cls-2" points="594.21 38.06 595.21 38.06 613.21 38.06 614.21 38.06 614.21 53.06 622.21 53.06 622.21 29.07 585.21 29.07 585.21 58.06 584.21 58.06 566.21 58.06 565.21 58.06 565.21 43.06 557.21 43.06 557.21 67.06 594.21 67.06 594.21 38.06"/><polygon class="cls-2" points="551.21 38.06 552.21 38.06 570.21 38.06 571.21 38.06 571.21 53.06 579.21 53.06 579.21 29.07 542.21 29.07 542.21 58.06 541.21 58.06 523.21 58.06 522.21 58.06 522.21 43.06 514.21 43.06 514.21 67.06 551.21 67.06 551.21 38.06"/><polygon class="cls-2" points="637.21 38.06 638.21 38.06 656.21 38.06 657.21 38.06 657.21 53.06 665.21 53.06 665.21 29.07 628.21 29.07 628.21 58.06 627.21 58.06 609.21 58.06 608.21 58.06 608.21 43.06 600.21 43.06 600.21 67.06 637.21 67.06 637.21 38.06"/><polygon class="cls-2" points="508.21 38.06 509.21 38.06 527.21 38.06 528.21 38.06 528.21 53.06 536.21 53.06 536.21 29.07 499.21 29.07 499.21 58.06 498.21 58.06 480.21 58.06 479.21 58.06 479.21 43.06 471.21 43.06 471.21 67.06 508.21 67.06 508.21 38.06"/><polygon class="cls-2" points="680.21 38.06 681.21 38.06 699.21 38.06 700.21 38.06 700.21 53.06 708.21 53.06 708.21 29.07 671.21 29.07 671.21 58.06 670.21 58.06 652.21 58.06 651.21 58.06 651.21 43.06 643.21 43.06 643.21 67.06 680.21 67.06 680.21 38.06"/><line class="cls-6" x1="47.21" y1="95.57" x2="47.21" y2="95.57"/><line class="cls-6" x1="90.71" y1="90.57" x2="90.71" y2="90.57"/><line class="cls-6" x1="90.21" y1="95.57" x2="90.21" y2="95.57"/><line class="cls-6" x1="90.77" y1="7" x2="90.77" y2="7"/><line class="cls-6" x1="90.27" y1="12" x2="90.27" y2="12"/><path d="M-.5-.5v1081h1921V-.5Zm1,29.07H16.21v24H8v-15H.5Zm0,14H2.21v15H22v-29H58.21v24h-8v-15h-20v29H.5Zm1878.71-5v29h-37v-24h8v15h20v-29h37v24h-8v-15Zm-15,15h-8v-15h-20v29h-37v-24h8v15h20v-29h37Zm-43,0h-8v-15h-20v29h-37v-24h8v15h20v-29h37Zm-43,0h-8v-15h-20v29h-37v-24h8v15h20v-29h37Zm-43,0h-8v-15h-20v29h-37v-24h8v15h20v-29h37Zm-43,0h-8v-15h-20v29h-37v-24h8v15h20v-29h37Zm-43,0h-8v-15h-20v29h-37v-24h8v15h20v-29h37Zm-43,0h-8v-15h-20v29h-37v-24h8v15h20v-29h37Zm-43,0h-8v-15h-20v29h-37v-24h8v15h20v-29h37Zm-43,0h-8v-15h-20v29h-37v-24h8v15h20v-29h37Zm-43,0h-8v-15h-20v29h-37v-24h8v15h20v-29h37Zm-43,0h-8v-15h-20v29h-37v-24h8v15h20v-29h37Zm-43,0h-8v-15h-20v29h-37v-24h8v15h20v-29h37Zm-43,0h-8v-15h-20v29h-37v-24h8v15h20v-29h37Zm-43,0h-8v-15h-20v29h-37v-24h8v15h20v-29h37Zm-43,0h-8v-15h-20v29h-37v-24h8v15h20v-29h37Zm-43,0h-8v-15h-20v29h-37v-24h8v15h20v-29h37Zm-43,0h-8v-15h-20v29h-37v-24h8v15h20v-29h37Zm-43,0h-8v-15h-20v29h-37v-24h8v15h20v-29h37Zm-43,0h-8v-15h-20v29h-37v-24h8v15h20v-29h37Zm-43,0h-8v-15h-20v29h-37v-24h8v15h20v-29h37Zm-43,0h-8v-15h-20v29h-37v-24h8v15h20v-29h37Zm-43,0h-8v-15h-20v29h-37v-24h8v15h20v-29h37Zm-43,0h-8v-15h-20v29h-37v-24h8v15h20v-29h37Zm-43,0h-8v-15h-20v29h-37v-24h8v15h20v-29h37Zm-43,0h-8v-15h-20v29h-37v-24h8v15h20v-29h37Zm-43,0h-8v-15h-20v29h-37v-24h8v15h20v-29h37Zm-43,0h-8v-15h-20v29h-37v-24h8v15h20v-29h37Zm-43,0h-8v-15h-20v29h-37v-24h8v15h20v-29h37Zm-43,0h-8v-15h-20v29h-37v-24h8v15h20v-29h37Zm-43,0h-8v-15h-20v29h-37v-24h8v15h20v-29h37Zm-43,0h-8v-15h-20v29h-37v-24h8v15h20v-29h37Zm-43,0h-8v-15h-20v29h-37v-24h8v15h20v-29h37Zm-43,0h-8v-15h-20v29h-37v-24h8v15h20v-29h37Zm-43,0h-8v-15h-20v29h-37v-24h8v15h20v-29h37Zm-43,0h-8v-15h-20v29h-37v-24h8v15h20v-29h37Zm-43,0h-8v-15h-20v29h-37v-24h8v15h20v-29h37Zm-43,0h-8v-15h-20v29h-37v-24h8v15h20v-29h37Zm-43,0h-8v-15h-20v29h-37v-24h8v15h20v-29h37Zm-43,0h-8v-15h-20v29h-37v-24h8v15h20v-29h37Zm-43,0h-8v-15h-20v29h-37v-24h8v15h20v-29h37Zm-43,0h-8v-15h-20v29h-37v-24h8v15h20v-29h37Zm-43,0h-8v-15h-20v29h-37v-24h8v15h20v-29h37ZM1865,1016v29h-37v-24h8v15h20v-29h37v24h-8v-15Zm-15,15h-8v-15h-20v29h-37v-24h8v15h20v-29h37Zm-43,0h-8v-15h-20v29h-37v-24h8v15h20v-29h37Zm-43,0h-8v-15h-20v29h-37v-24h8v15h20v-29h37Zm-43,0h-8v-15h-20v29h-37v-24h8v15h20v-29h37Zm-43,0h-8v-15h-20v29h-37v-24h8v15h20v-29h37Zm-43,0h-8v-15h-20v29h-37v-24h8v15h20v-29h37Zm-43,0h-8v-15h-20v29h-37v-24h8v15h20v-29h37Zm-43,0h-8v-15h-20v29h-37v-24h8v15h20v-29h37Zm-43,0h-8v-15h-20v29h-37v-24h8v15h20v-29h37Zm-43,0h-8v-15h-20v29h-37v-24h8v15h20v-29h37Zm-43,0h-8v-15h-20v29h-37v-24h8v15h20v-29h37Zm-43,0h-8v-15h-20v29h-37v-24h8v15h20v-29h37Zm-43,0h-8v-15h-20v29h-37v-24h8v15h20v-29h37Zm-43,0h-8v-15h-20v29h-37v-24h8v15h20v-29h37Zm-43,0h-8v-15h-20v29h-37v-24h8v15h20v-29h37Zm-43,0h-8v-15h-20v29h-37v-24h8v15h20v-29h37Zm-43,0h-8v-15h-20v29h-37v-24h8v15h20v-29h37Zm-43,0h-8v-15h-20v29h-37v-24h8v15h20v-29h37Zm-43,0h-8v-15h-20v29h-37v-24h8v15h20v-29h37Zm-43,0h-8v-15h-20v29H968v-24h8v15h20v-29h37Zm-43,0h-8v-15H962v29H925v-24h8v15h20v-29h37Zm-43,0h-8v-15H919v29H882v-24h8v15h20v-29h37Zm-43,0h-8v-15H876v29H839v-24h8v15h20v-29h37Zm-43,0h-8v-15H833v29H796v-24h8v15h20v-29h37Zm-43,0h-8v-15H790v29H753v-24h8v15h20v-29h37Zm-43,0h-8v-15H747v29H710v-24h8v15h20v-29h37Zm-43,0h-8v-15H704v29H667v-24h8v15h20v-29h37Zm-43,0h-8v-15H661v29H624v-24h8v15h20v-29h37Zm-43,0h-8v-15H618v29H581v-24h8v15h20v-29h37Zm-43,0h-8v-15H575v29H538v-24h8v15h20v-29h37Zm-43,0h-8v-15H532v29H495v-24h8v15h20v-29h37Zm-43,0h-8v-15H489v29H452v-24h8v15h20v-29h37Zm-43,0h-8v-15H446v29H409v-24h8v15h20v-29h37Zm-43,0h-8v-15H403v29H366v-24h8v15h20v-29h37Zm-43,0h-8v-15H360v29H323v-24h8v15h20v-29h37Zm-43,0h-8v-15H317v29H280v-24h8v15h20v-29h37Zm-43,0h-8v-15H274v29H237v-24h8v15h20v-29h37Zm-43,0h-8v-15H231v29H194v-24h8v15h20v-29h37Zm-43,0h-8v-15H188v29H151v-24h8v15h20v-29h37Zm-43,0h-8v-15H145v29H108v-24h8v15h20v-29h37Zm-43,0h-8v-15H102v29H65v-24h8v15H93v-29h37Zm-43,0H79v-15H59v29H22v-24h8v15H50v-29H87Zm-43,0H36v-15H16v29H.5v-9H7v-29H44Zm1875.5,48.5H.5V1074H28v0H44l1849-1h26.5Zm0-7.48H1906v0h-13L44,1073,.5,1073v-4h28v0H44l1849-1h26.5Zm0-5h-13v0H1893L44,1068,.5,1068v-18h1919Zm0-22H1914v-24h5.5Zm0-29H1908v29h-37v-24h8v15h20v-29h20.5Zm0-14H2v29H.5V990.43l27.56,0v0H44l1849-1h26.5Zm0-13.55h-13.44v0H1893l-1849,1-43.5,0v-4l28.06,0v0H44l1849-1h26.5Zm0-5h-12.94v0H1893l-1849,1-43.5,0V95.56l32.2,0h9.51v0l1834.53-1,42.76,0Zm0-889.88-42.76,0-1844,1-32.2,0v-4l32.2,0h10v0l1834-1,42.76,0Zm0-5-42.76,0-1844,1-32.2,0v-18h1919Zm0-22h-34.29v-24h8v15h20v-29h6.29Zm0-43H.5V12l32.2,0h9.57v0l1834.47-1,42.76,0Zm0-13.57-42.76,0L32.7,11,.5,11V7L32.7,7H42.77V7l1834-1,42.76,0Zm0-5-42.76,0L32.7,6,.5,6V.5h1919Z" transform="translate(48 0.5)"/><line class="cls-6" x1="33.56" y1="985.44" x2="33.56" y2="985.44"/><line class="cls-6" x1="33.06" y1="990.44" x2="33.06" y2="990.44"/><line class="cls-6" x1="76.56" y1="985.44" x2="76.56" y2="985.44"/><line class="cls-6" x1="76.06" y1="990.44" x2="76.06" y2="990.44"/><g id="Layer_4" data-name="Layer 4"><polygon points="48.37 1007.5 55 1007.5 50 1002.5 47.73 1002.5 48.37 1007.5"/></g></svg>